<svg xmlns="http://www.w3.org/2000/svg">

    <symbol id="icon-arrow" viewBox="0 0 11.0005 6.00073" >
            <defs/>
            <path id="Vector" d="M10.85 0.85L5.85 5.85C5.8 5.9 5.75 5.93 5.69 5.96C5.63 5.98 5.56 6 5.5 6C5.43 6 5.36 5.98 5.3 5.96C5.24 5.93 5.19 5.9 5.14 5.85L0.14 0.85C0.05 0.76 0 0.63 0 0.5C0 0.36 0.05 0.24 0.14 0.14C0.24 0.05 0.36 0 0.5 0C0.63 0 0.76 0.05 0.85 0.14L5.5 4.79L10.14 0.14C10.19 0.1 10.24 0.06 10.3 0.03C10.36 0.01 10.43 0 10.5 0C10.56 0 10.63 0.01 10.69 0.03C10.75 0.06 10.8 0.1 10.85 0.14C10.9 0.19 10.93 0.24 10.96 0.3C10.98 0.36 11 0.43 11 0.5C11 0.56 10.98 0.63 10.96 0.69C10.93 0.75 10.9 0.8 10.85 0.85Z" fill="#000000" fill-opacity="1.000000" fill-rule="nonzero"/>        
    </symbol>
    
    <symbol id="icon-phone" viewBox="0 0 24 24">
            <defs/>
            <path id="Subtract" d="M0.238098 23.9382C0.103455 23.8635 0.0022583 23.6936 0 23.5381C-0.000915527 23.4756 0.425354 22.3169 0.947327 20.9631L1.89624 18.5017L1.74286 18.2373C1.46069 17.751 0.898254 16.5701 0.722839 16.0957C0.499512 15.4915 0.219116 14.3726 0.111389 13.6553C0.00683594 12.959 -0.00939941 11.1555 0.0830688 10.5107C0.481567 7.73218 1.63135 5.3855 3.51971 3.49683C5.40619 1.60986 7.78259 0.44165 10.5087 0.0612793C11.0947 -0.0205078 12.9258 -0.0205078 13.5117 0.0612793C17.0223 0.55127 20.0076 2.38794 21.9526 5.25439C22.9832 6.77319 23.6111 8.40454 23.913 10.3464C24.0181 11.0234 24.031 12.8696 23.9351 13.5144C23.527 16.2561 22.3415 18.655 20.4808 20.5051C17.5792 23.3896 13.4504 24.5886 9.40607 23.7209C8.38141 23.501 6.84406 22.8909 5.88696 22.324L5.6524 22.1851L3.11859 23.0923C1.72504 23.5913 0.532043 23.9998 0.467529 24C0.403015 24.0002 0.299805 23.9724 0.238098 23.9382ZM17.1943 17.1743C16.8536 17.5112 16.5048 17.7261 16.0377 17.8872C15.6009 18.0378 14.8201 18.0779 14.3563 17.9734C13.2753 17.73 11.6201 16.8716 10.2037 15.8201C8.86542 14.8264 7.7132 13.3823 6.75391 11.4966C6.00952 10.0332 5.81201 9.09961 6.04987 8.16943C6.3114 7.14673 7.11786 6.30249 8.11255 6.01001C8.29315 5.95679 8.56122 5.93506 9.0329 5.93506C9.6394 5.93506 9.70959 5.94385 9.82452 6.03418C9.90436 6.09717 10.1608 6.5498 10.5223 7.26636L11.094 8.39893L11.0924 8.79785C11.0909 9.15454 11.0732 9.23413 10.9255 9.54883C10.8346 9.74268 10.6205 10.074 10.4498 10.2854L10.1395 10.6699L10.3597 11.1091C10.9321 12.2507 11.7766 13.085 12.9452 13.6636L13.3408 13.8594L13.6097 13.6165C14.1773 13.1042 14.7424 12.8579 15.2712 12.8923C15.5792 12.9126 15.6699 12.9492 16.7258 13.4788C17.3452 13.7893 17.8942 14.0903 17.9458 14.1475C18.0286 14.2393 18.0414 14.3301 18.0547 14.9209C18.0687 15.542 18.0609 15.6165 17.9457 15.9597C17.7834 16.4434 17.5466 16.8262 17.1943 17.1743Z" clip-rule="evenodd" fill-opacity="1.000000" fill-rule="evenodd"/>
    </symbol>

    <symbol id="icon-tg" viewBox="0 0 24 24">
        <defs />
        <path
        id="Subtract"
        d="M12 24C18.6274 24 24 18.6274 24 12C24 5.37256 18.6274 0 12 0C5.37256 0 0 5.37256 0 12C0 18.6274 5.37256 24 12 24ZM12.4301 8.85913C11.2628 9.34448 8.93011 10.3494 5.43188 11.8735C4.86383 12.0994 4.56628 12.3203 4.53918 12.5364C4.49341 12.9016 4.95068 13.0454 5.57349 13.2412C5.6582 13.2678 5.74597 13.2954 5.83594 13.3247C6.44861 13.5239 7.27283 13.7568 7.70129 13.7661C8.08997 13.7747 8.52374 13.6143 9.00262 13.2854Q13.9054 9.97607 14.0643 9.93994C14.139 9.92285 14.2426 9.90161 14.3127 9.96387C14.3829 10.0264 14.376 10.1445 14.3686 10.176C14.3091 10.4294 11.2388 13.2222 11.0621 13.4058C10.968 13.5034 10.8721 13.5959 10.78 13.6848C10.2108 14.2334 9.78394 14.645 10.8036 15.3169C11.8288 15.9924 12.4255 16.4236 13.4816 17.1157C13.6221 17.2078 13.7562 17.3035 13.8869 17.3967C14.3841 17.7512 14.8307 18.0696 15.3826 18.0188C15.7032 17.9893 16.0345 17.6877 16.2027 16.7886C16.6002 14.6633 17.3817 10.0586 17.5622 8.16113C17.5781 7.99487 17.5581 7.78198 17.5422 7.68872C17.5262 7.59521 17.4927 7.46216 17.3713 7.36377C17.2276 7.24707 17.0056 7.22241 16.9064 7.22412C16.455 7.23218 15.7626 7.4729 12.4301 8.85913Z"
        clip-rule="evenodd"
        fill-opacity="1.000000"
        fill-rule="evenodd"
        />
    </symbol>

    <symbol id="icon-arrowRight"  viewBox="0 0 18.0006 15.0009">
        <defs />
        <path id="Vector"
            d="M17.78 8.03L11.03 14.78C10.88 14.92 10.69 15 10.5 15C10.3 15 10.11 14.92 9.96 14.78C9.82 14.64 9.74 14.44 9.74 14.25C9.74 14.05 9.82 13.86 9.96 13.71L15.43 8.25L0.75 8.25C0.55 8.25 0.36 8.17 0.21 8.03C0.07 7.89 0 7.69 0 7.5C0 7.3 0.07 7.11 0.21 6.97C0.36 6.82 0.55 6.75 0.75 6.75L15.43 6.75L9.96 1.28C9.82 1.14 9.74 0.94 9.74 0.75C9.74 0.55 9.82 0.36 9.96 0.21C10.11 0.07 10.3 0 10.5 0C10.69 0 10.88 0.07 11.03 0.21L17.78 6.96C17.85 7.03 17.9 7.12 17.94 7.21C17.98 7.3 18 7.4 18 7.5C18 7.59 17.98 7.69 17.94 7.78C17.9 7.87 17.85 7.96 17.78 8.03Z"
            fill-opacity="1.000000" fill-rule="nonzero" />
    </symbol>

    <symbol id="icon-youtube"  viewBox="0 0 31.4271 22">

        <defs/>
        <path id="Subtract" d="M30.77 3.43555C30.4078 2.08252 29.3445 1.01929 27.9915 0.656982C25.5417 0 15.7135 0 15.7135 0C15.7135 0 5.88544 0 3.43555 0.656982C2.08258 1.01929 1.01929 2.08252 0.657104 3.43555C0 5.8855 0 11 0 11C0 11 0 16.1145 0.657104 18.5645C1.01929 19.9175 2.08258 20.9807 3.43555 21.3428C5.88544 22 15.7135 22 15.7135 22C15.7135 22 25.5417 22 27.9915 21.3428C29.3445 20.9807 30.4078 19.9175 30.77 18.5645C31.4271 16.1145 31.4271 11 31.4271 11C31.4271 11 31.4244 5.8855 30.77 3.43555ZM20.7324 11.0007L12.5677 15.7141L12.5677 6.28711L20.7324 11.0007Z" clip-rule="evenodd" fill-opacity="1.000000" fill-rule="evenodd"/>
    </symbol>

    <symbol id="icon-delivery" viewBox="0 0 32.5 32.5">
        <defs />
        <path id="Vector"
            d="M16.25 0C13.03 0 9.89 0.95 7.22 2.73C4.54 4.52 2.46 7.06 1.23 10.03C0 13 -0.32 16.26 0.31 19.42C0.93 22.57 2.48 25.46 4.75 27.74C7.03 30.01 9.92 31.56 13.07 32.18C16.23 32.81 19.49 32.49 22.46 31.26C25.43 30.03 27.97 27.95 29.76 25.27C31.54 22.6 32.5 19.46 32.5 16.25C32.49 11.94 30.78 7.81 27.73 4.76C24.68 1.71 20.55 0 16.25 0ZM16.25 30C13.53 30 10.87 29.19 8.61 27.68C6.34 26.17 4.58 24.02 3.54 21.51C2.5 18.99 2.23 16.23 2.76 13.56C3.29 10.9 4.6 8.45 6.52 6.52C8.45 4.6 10.9 3.29 13.56 2.76C16.23 2.23 18.99 2.5 21.51 3.54C24.02 4.58 26.17 6.34 27.68 8.61C29.19 10.87 30 13.53 30 16.25C29.99 19.89 28.54 23.39 25.96 25.96C23.39 28.54 19.89 29.99 16.25 30ZM26.25 16.25C26.25 16.58 26.11 16.89 25.88 17.13C25.64 17.36 25.33 17.5 25 17.5L16.25 17.5C15.91 17.5 15.6 17.36 15.36 17.13C15.13 16.89 15 16.58 15 16.25L15 7.5C15 7.16 15.13 6.85 15.36 6.61C15.6 6.38 15.91 6.25 16.25 6.25C16.58 6.25 16.89 6.38 17.13 6.61C17.36 6.85 17.5 7.16 17.5 7.5L17.5 15L25 15C25.33 15 25.64 15.13 25.88 15.36C26.11 15.6 26.25 15.91 26.25 16.25Z"
             fill-opacity="1.000000" fill-rule="nonzero" />
    </symbol>

    <symbol id="icon-escort" viewBox="0 0 32.5062 32.5226">
        <defs />
        <path id="Vector"
            d="M17.5 7.5L17.5 14.22L23.19 11.38C23.48 11.23 23.83 11.2 24.14 11.31C24.45 11.41 24.71 11.64 24.86 11.93C25.01 12.23 25.04 12.57 24.93 12.89C24.83 13.2 24.6 13.46 24.3 13.61L16.8 17.36C16.61 17.46 16.4 17.5 16.19 17.49C15.98 17.48 15.77 17.42 15.59 17.31C15.41 17.2 15.26 17.04 15.15 16.85C15.05 16.67 15 16.46 15 16.25L15 7.5C15 7.16 15.13 6.85 15.36 6.61C15.6 6.38 15.91 6.25 16.25 6.25C16.58 6.25 16.89 6.38 17.13 6.61C17.36 6.85 17.5 7.16 17.5 7.5ZM16.25 30C13.53 30 10.87 29.19 8.61 27.68C6.34 26.17 4.58 24.02 3.54 21.51C2.5 18.99 2.23 16.23 2.76 13.56C3.29 10.9 4.6 8.45 6.52 6.52C8.45 4.6 10.9 3.29 13.56 2.76C16.23 2.23 18.99 2.5 21.51 3.54C24.02 4.58 26.17 6.34 27.68 8.61C29.19 10.87 30 13.53 30 16.25C30 16.58 30.13 16.89 30.36 17.13C30.6 17.36 30.91 17.5 31.25 17.5C31.58 17.5 31.89 17.36 32.13 17.13C32.36 16.89 32.5 16.58 32.5 16.25C32.5 13.03 31.54 9.89 29.76 7.22C27.97 4.54 25.43 2.46 22.46 1.23C19.49 0 16.23 -0.32 13.07 0.31C9.92 0.93 7.03 2.48 4.75 4.75C2.48 7.03 0.93 9.92 0.31 13.07C-0.32 16.23 0 19.49 1.23 22.46C2.46 25.43 4.54 27.97 7.22 29.76C9.89 31.54 13.03 32.5 16.25 32.5C16.58 32.5 16.89 32.36 17.13 32.13C17.36 31.89 17.5 31.58 17.5 31.25C17.5 30.91 17.36 30.6 17.13 30.36C16.89 30.13 16.58 30 16.25 30ZM32.45 30.92C32.5 31.08 32.51 31.25 32.49 31.42C32.47 31.58 32.42 31.74 32.34 31.88C32.26 32.03 32.15 32.16 32.02 32.26C31.88 32.36 31.73 32.43 31.57 32.48C31.41 32.52 31.24 32.53 31.08 32.51C30.92 32.48 30.76 32.43 30.61 32.34C30.47 32.26 30.35 32.15 30.25 32.01C30.15 31.88 30.08 31.73 30.04 31.57C29.6 29.9 28.04 28.75 26.25 28.75C24.45 28.75 22.9 29.9 22.45 31.57C22.38 31.83 22.23 32.07 22.01 32.24C21.79 32.4 21.52 32.49 21.25 32.5C21.14 32.49 21.03 32.48 20.92 32.45C20.6 32.37 20.33 32.16 20.16 31.87C20 31.58 19.95 31.24 20.04 30.92C20.44 29.42 21.4 28.12 22.71 27.28C22.01 26.58 21.53 25.69 21.34 24.72C21.15 23.75 21.25 22.74 21.62 21.83C22 20.92 22.64 20.13 23.47 19.59C24.29 19.04 25.26 18.74 26.24 18.74C27.23 18.74 28.2 19.04 29.02 19.59C29.85 20.13 30.49 20.92 30.86 21.83C31.24 22.74 31.34 23.75 31.15 24.72C30.95 25.69 30.48 26.58 29.78 27.28C31.09 28.12 32.05 29.42 32.45 30.92ZM23.75 23.75C23.75 24.24 23.89 24.72 24.17 25.13C24.44 25.55 24.83 25.87 25.29 26.05C25.75 26.24 26.25 26.29 26.73 26.2C27.22 26.1 27.66 25.86 28.01 25.51C28.36 25.16 28.6 24.72 28.7 24.23C28.79 23.75 28.74 23.25 28.55 22.79C28.37 22.33 28.05 21.94 27.63 21.67C27.22 21.39 26.74 21.25 26.25 21.25C25.58 21.25 24.95 21.51 24.48 21.98C24.01 22.45 23.75 23.08 23.75 23.75Z"
            fill-opacity="1.000000" fill-rule="nonzero" />
    </symbol>

    <symbol id="icon-experience" viewBox="0 0 34.9996 30.0112">
        <defs />
        <path id="Vector"
            d="M16.25 15C16.25 15.33 16.11 15.64 15.88 15.88C15.64 16.11 15.33 16.25 15 16.25L7.5 16.25C7.16 16.25 6.85 16.11 6.61 15.88C6.38 15.64 6.25 15.33 6.25 15C6.25 14.66 6.38 14.35 6.61 14.11C6.85 13.88 7.16 13.75 7.5 13.75L15 13.75C15.33 13.75 15.64 13.88 15.88 14.11C16.11 14.35 16.25 14.66 16.25 15ZM15 8.75L7.5 8.75C7.16 8.75 6.85 8.88 6.61 9.11C6.38 9.35 6.25 9.66 6.25 10C6.25 10.33 6.38 10.64 6.61 10.88C6.85 11.11 7.16 11.25 7.5 11.25L15 11.25C15.33 11.25 15.64 11.11 15.88 10.88C16.11 10.64 16.25 10.33 16.25 10C16.25 9.66 16.11 9.35 15.88 9.11C15.64 8.88 15.33 8.75 15 8.75ZM32.5 18.97L32.5 28.75C32.5 28.97 32.44 29.18 32.33 29.37C32.22 29.57 32.07 29.72 31.87 29.84C31.68 29.95 31.47 30.01 31.25 30.01C31.03 30.01 30.81 29.95 30.62 29.84L26.87 27.69L23.12 29.84C22.93 29.95 22.71 30.01 22.49 30.01C22.27 30.01 22.06 29.95 21.87 29.84C21.67 29.72 21.52 29.57 21.41 29.37C21.3 29.18 21.24 28.97 21.25 28.75L21.25 25L2.5 25C1.83 25 1.2 24.73 0.73 24.26C0.26 23.79 0 23.16 0 22.5L0 2.5C0 1.83 0.26 1.2 0.73 0.73C1.2 0.26 1.83 0 2.5 0L30 0C30.66 0 31.29 0.26 31.76 0.73C32.23 1.2 32.5 1.83 32.5 2.5L32.5 7.27C33.29 8.02 33.91 8.93 34.34 9.94C34.77 10.94 34.99 12.03 34.99 13.12C34.99 14.21 34.77 15.3 34.34 16.3C33.91 17.31 33.29 18.22 32.5 18.97ZM21.25 22.5L21.25 18.97C19.88 17.66 19.02 15.91 18.81 14.03C18.6 12.15 19.05 10.26 20.09 8.67C21.13 7.09 22.68 5.92 24.49 5.36C26.3 4.8 28.25 4.9 30 5.62L30 2.5L2.5 2.5L2.5 22.5L21.25 22.5ZM30 20.62C29.01 21.03 27.94 21.25 26.87 21.25C25.8 21.25 24.73 21.03 23.75 20.62L23.75 26.59L26.25 25.16C26.43 25.05 26.65 25 26.87 25C27.08 25 27.3 25.05 27.49 25.16L29.99 26.59L30 20.62ZM32.5 13.12C32.5 12.01 32.17 10.92 31.55 9.99C30.93 9.07 30.05 8.35 29.02 7.92C27.99 7.5 26.86 7.39 25.77 7.6C24.68 7.82 23.68 8.36 22.89 9.14C22.11 9.93 21.57 10.93 21.35 12.02C21.14 13.11 21.25 14.24 21.67 15.27C22.1 16.3 22.82 17.18 23.74 17.8C24.67 18.42 25.76 18.75 26.87 18.75C27.61 18.75 28.34 18.6 29.02 18.32C29.71 18.03 30.33 17.62 30.85 17.1C31.37 16.58 31.78 15.96 32.07 15.27C32.35 14.59 32.5 13.86 32.5 13.12Z"
            fill-opacity="1.000000" fill-rule="nonzero" />
    </symbol>

    <symbol id="icon-benefit" viewBox="0 0 36.25 32.5">
        <defs />
        <path id="Vector"
            d="M16.25 30C13.53 30 10.87 29.19 8.61 27.68C6.34 26.17 4.58 24.02 3.54 21.51C2.5 18.99 2.23 16.23 2.76 13.56C3.29 10.9 4.6 8.45 6.52 6.52C8.45 4.6 10.9 3.29 13.56 2.76C16.23 2.23 18.99 2.5 21.51 3.54C24.02 4.58 26.17 6.34 27.68 8.61C29.19 10.87 30 13.53 30 16.25C30 16.58 30.13 16.89 30.36 17.13C30.6 17.36 30.91 17.5 31.25 17.5C31.58 17.5 31.89 17.36 32.13 17.13C32.36 16.89 32.5 16.58 32.5 16.25C32.5 13.03 31.54 9.89 29.76 7.22C27.97 4.54 25.43 2.46 22.46 1.23C19.49 0 16.23 -0.32 13.07 0.31C9.92 0.93 7.03 2.48 4.75 4.75C2.48 7.03 0.93 9.92 0.31 13.07C-0.32 16.23 0 19.49 1.23 22.46C2.46 25.43 4.54 27.97 7.22 29.76C9.89 31.54 13.03 32.5 16.25 32.5C16.58 32.5 16.89 32.36 17.13 32.13C17.36 31.89 17.5 31.58 17.5 31.25C17.5 30.91 17.36 30.6 17.13 30.36C16.89 30.13 16.58 30 16.25 30Z"
             fill-opacity="1.000000" fill-rule="nonzero" />
        <path id="Vector"
            d="M16.75 25.25C17.05 25.25 17.35 25.13 17.56 24.93C17.78 24.72 17.9 24.45 17.9 24.16L17.9 23.43C19.82 22.95 21.25 21.32 21.25 19.38C21.25 19.08 21.21 18.78 21.14 18.48C20.92 17.54 20.37 16.7 19.57 16.1C18.77 15.49 17.77 15.16 16.75 15.16C15.72 15.16 14.83 14.48 14.61 13.55C14.54 13.25 14.55 12.94 14.62 12.65C14.7 12.35 14.84 12.07 15.05 11.83C15.25 11.6 15.51 11.4 15.8 11.27C16.1 11.14 16.42 11.07 16.75 11.07C17.07 11.07 17.39 11.14 17.68 11.27C17.98 11.4 18.24 11.59 18.44 11.83C18.65 12.07 18.79 12.35 18.87 12.64C18.94 12.94 18.95 13.25 18.88 13.54C18.81 13.83 18.87 14.12 19.04 14.36C19.2 14.61 19.46 14.78 19.76 14.84C20.07 14.9 20.38 14.85 20.64 14.69C20.9 14.53 21.08 14.29 21.14 14.01C21.21 13.71 21.25 13.42 21.25 13.11C21.25 11.17 19.82 9.54 17.9 9.06L17.9 8.33C17.9 8.04 17.78 7.77 17.56 7.56C17.35 7.36 17.05 7.25 16.75 7.25C16.44 7.25 16.14 7.36 15.93 7.56C15.71 7.77 15.59 8.04 15.59 8.33L15.59 9.06C13.67 9.54 12.25 11.17 12.25 13.11C12.25 13.42 12.28 13.71 12.34 14.01C12.57 14.95 13.12 15.79 13.92 16.39C14.72 17 15.72 17.33 16.75 17.33C17.32 17.33 17.88 17.55 18.28 17.93C18.69 18.32 18.92 18.83 18.93 19.38C18.93 19.92 18.7 20.44 18.29 20.82C17.88 21.2 17.32 21.42 16.75 21.42C16.42 21.42 16.1 21.35 15.8 21.22C15.51 21.09 15.25 20.89 15.05 20.66C14.84 20.42 14.7 20.14 14.62 19.84C14.55 19.55 14.54 19.24 14.61 18.94C14.64 18.8 14.65 18.66 14.62 18.52C14.59 18.37 14.53 18.24 14.45 18.12C14.37 18 14.26 17.9 14.13 17.82C14.01 17.74 13.87 17.68 13.72 17.65C13.42 17.59 13.1 17.65 12.85 17.81C12.59 17.96 12.41 18.21 12.34 18.49C12.28 18.78 12.25 19.07 12.25 19.38C12.25 21.32 13.67 22.95 15.59 23.43L15.59 24.16C15.59 24.45 15.71 24.72 15.93 24.93C16.14 25.13 16.44 25.25 16.75 25.25Z"
             fill-opacity="1.000000" fill-rule="nonzero" />
        <path id="Vector"
            d="M27.05 22.97C26.85 22.78 26.58 22.67 26.29 22.67C26 22.67 25.73 22.78 25.53 22.97L20.56 27.54C20.46 27.64 20.38 27.75 20.33 27.87C20.27 27.99 20.25 28.12 20.25 28.25C20.25 28.38 20.27 28.51 20.33 28.63C20.38 28.75 20.46 28.86 20.56 28.95C20.66 29.05 20.78 29.12 20.91 29.17C21.04 29.22 21.18 29.25 21.33 29.25C21.47 29.24 21.61 29.22 21.74 29.17C21.87 29.12 21.99 29.05 22.09 28.95L26.29 25.08L28.65 27.25C28.75 27.34 28.87 27.42 29 27.47C29.13 27.52 29.27 27.54 29.41 27.54C29.55 27.54 29.69 27.52 29.82 27.47C29.95 27.42 30.07 27.34 30.17 27.25L34.01 23.72L34.01 24.68C34.01 25.6 35.21 26.06 35.92 25.41C36.13 25.21 36.25 24.95 36.25 24.68L36.25 21.28C36.25 20.71 35.74 20.25 35.13 20.25L31.44 20.25C31.14 20.25 30.86 20.35 30.65 20.55C29.94 21.2 30.44 22.31 31.44 22.31L32.48 22.31L29.41 25.14L27.05 22.97Z"
             fill-opacity="1.000000" fill-rule="evenodd" />
    </symbol>

    <symbol id="icon-service" viewBox="0 0 35.0012 31.25">
        <defs />
        <path id="Vector"
            d="M34.06 10.01C33.71 9.61 33.27 9.3 32.79 9.08C32.3 8.86 31.78 8.74 31.25 8.75L22.5 8.75L22.5 6.25C22.5 4.59 21.84 3 20.66 1.83C19.49 0.65 17.9 0 16.25 0C16.01 -0.01 15.79 0.06 15.59 0.18C15.39 0.3 15.23 0.48 15.13 0.69L9.22 12.5L2.5 12.5C1.83 12.5 1.2 12.76 0.73 13.23C0.26 13.7 0 14.33 0 15L0 28.75C0 29.41 0.26 30.04 0.73 30.51C1.2 30.98 1.83 31.25 2.5 31.25L29.37 31.25C30.28 31.25 31.17 30.91 31.85 30.31C32.54 29.7 32.98 28.87 33.09 27.96L34.97 12.96C35.03 12.44 34.99 11.9 34.83 11.39C34.67 10.88 34.41 10.41 34.06 10.01ZM2.5 15L8.75 15L8.75 28.75L2.5 28.75L2.5 15ZM32.49 12.65L30.61 27.65C30.57 27.95 30.43 28.23 30.2 28.43C29.97 28.63 29.67 28.75 29.37 28.75L11.25 28.75L11.25 14.04L16.98 2.57C17.83 2.74 18.6 3.2 19.15 3.87C19.7 4.54 20 5.38 20 6.25L20 10C20 10.33 20.13 10.64 20.36 10.88C20.6 11.11 20.91 11.25 21.25 11.25L31.25 11.25C31.42 11.24 31.6 11.28 31.76 11.36C31.92 11.43 32.07 11.54 32.18 11.67C32.3 11.8 32.39 11.96 32.44 12.13C32.49 12.3 32.51 12.48 32.49 12.65Z"
             fill-opacity="1.000000" fill-rule="nonzero" />
    </symbol>

    <symbol id="icon-client" viewBox="0 0 34 32">
        <defs />
        <path id="Vector"
            d="M31.14 2.85C27.21 -1.11 20.73 -0.91 16.99 3.2C13.25 -0.91 6.77 -1.11 2.84 2.85C-1.06 6.74 -0.93 13.15 3.1 16.91C1.04 18.87 2.22 22.41 5.02 22.76C4.85 24.68 6.48 26.44 8.42 26.4C8.53 28.52 10.65 30.03 12.69 29.47C13.35 31.99 16.56 32.85 18.4 31C19.44 29.96 20.27 29.3 20.33 27.73C22.05 27.68 23.55 26.17 23.57 24.44C25.31 24.41 26.83 22.89 26.86 21.15C28.67 21.12 30.23 19.49 30.15 17.65L31.14 16.65C34.95 12.85 34.95 6.65 31.14 2.85ZM4.59 18.5L5.52 17.56C5.64 17.45 5.77 17.36 5.92 17.3C6.07 17.23 6.23 17.2 6.4 17.2C7.48 17.19 8.05 18.54 7.27 19.31L6.34 20.24C5.13 21.35 3.48 19.7 4.59 18.5ZM7.19 22.99C7.19 22.66 7.32 22.35 7.55 22.11L8.48 21.18C8.6 21.07 8.73 20.98 8.88 20.91C9.03 20.85 9.19 20.82 9.35 20.82C10.45 20.82 11 22.16 10.23 22.93L9.41 23.75C9.15 24.04 8.81 24.23 8.42 24.22C7.76 24.24 7.17 23.65 7.19 22.99ZM10.95 27.04C10.47 26.58 10.47 25.76 10.95 25.3L11.77 24.47C12.25 23.9 13.09 23.83 13.62 24.36C14.11 24.84 14.11 25.63 13.62 26.11L12.69 27.04C12.21 27.52 11.43 27.52 10.95 27.04ZM17.79 28.52L16.86 29.46C16.74 29.57 16.61 29.66 16.46 29.72C16.31 29.79 16.15 29.82 15.98 29.82C15.82 29.82 15.66 29.79 15.51 29.72C15.36 29.66 15.23 29.57 15.11 29.46C14.63 29 14.63 28.17 15.11 27.71L16.04 26.78C16.52 26.29 17.31 26.29 17.79 26.78C18.27 27.24 18.27 28.06 17.79 28.52ZM27.61 18.61C27.15 19.09 26.32 19.09 25.86 18.61L21.01 13.76L19.47 15.3L24.32 20.15C24.8 20.64 24.8 21.42 24.32 21.9C23.84 22.38 23.06 22.38 22.58 21.9L17.81 17.13L17.73 17.05L16.18 18.59L16.27 18.67L21.04 23.44C21.52 23.93 21.52 24.71 21.04 25.19C20.55 25.67 19.77 25.67 19.29 25.19L19.29 25.19C18.4 24.34 17.16 24.05 16.05 24.35C15.69 22.89 14.23 21.79 12.76 21.82C12.69 20.25 11.36 18.84 9.8 18.67C10.01 15.98 7.06 14.13 4.73 15.45C1.49 12.56 1.29 7.47 4.39 4.39C7.47 1.28 12.56 1.49 15.45 4.74L12.76 7.44L14.92 9.6C16.58 11.26 19.13 11.49 21.04 10.28L27.61 16.86C28.09 17.35 28.09 18.13 27.61 18.61ZM29.6 15.11L29.27 15.44C29.23 15.4 29.19 15.36 29.15 15.32L21.12 7.29L20.35 8.06C19.28 9.13 17.53 9.13 16.46 8.06L15.84 7.44L18.89 4.39C26.29 -2.43 36.41 7.71 29.6 15.11Z"
            fill-opacity="1.000000" fill-rule="nonzero" />
    </symbol>

    <symbol id="icon-professionalism" viewBox="0 0 37.5042 27.5443">
        <defs />
        <path id="Vector"
            d="M37 15.99C36.86 16.09 36.71 16.16 36.56 16.2C36.4 16.25 36.23 16.25 36.07 16.23C35.91 16.21 35.75 16.15 35.61 16.07C35.47 15.99 35.34 15.88 35.25 15.74C34.49 14.73 33.51 13.91 32.38 13.34C31.25 12.78 30.01 12.49 28.75 12.49C28.5 12.49 28.26 12.42 28.05 12.29C27.85 12.15 27.69 11.96 27.59 11.73C27.53 11.58 27.5 11.41 27.5 11.24C27.5 11.08 27.53 10.91 27.59 10.76C27.69 10.53 27.85 10.34 28.05 10.2C28.26 10.07 28.5 9.99 28.75 9.99C29.45 9.99 30.13 9.8 30.73 9.43C31.32 9.05 31.8 8.52 32.11 7.89C32.42 7.26 32.55 6.56 32.48 5.86C32.4 5.17 32.14 4.5 31.71 3.95C31.28 3.39 30.7 2.97 30.05 2.73C29.39 2.48 28.68 2.43 27.99 2.57C27.3 2.71 26.67 3.04 26.16 3.53C25.65 4.01 25.29 4.63 25.11 5.31C25.07 5.47 25 5.61 24.9 5.75C24.8 5.88 24.68 5.99 24.54 6.07C24.4 6.15 24.24 6.21 24.08 6.23C23.92 6.25 23.75 6.25 23.59 6.2C23.43 6.16 23.28 6.09 23.15 5.99C23.02 5.89 22.91 5.77 22.83 5.63C22.74 5.49 22.69 5.33 22.66 5.17C22.64 5.01 22.65 4.84 22.69 4.68C22.94 3.74 23.4 2.87 24.04 2.13C24.67 1.4 25.48 0.83 26.38 0.46C27.28 0.09 28.25 -0.06 29.22 0.01C30.19 0.09 31.13 0.39 31.96 0.89C32.8 1.39 33.5 2.08 34.02 2.9C34.54 3.72 34.87 4.65 34.96 5.62C35.06 6.59 34.93 7.57 34.58 8.47C34.24 9.38 33.68 10.2 32.96 10.85C34.66 11.59 36.14 12.76 37.25 14.24C37.35 14.37 37.42 14.52 37.46 14.68C37.5 14.84 37.51 15.01 37.49 15.17C37.46 15.33 37.41 15.49 37.32 15.63C37.24 15.77 37.13 15.9 37 15.99ZM28.58 25.62C28.67 25.76 28.73 25.92 28.76 26.09C28.78 26.25 28.78 26.42 28.74 26.59C28.7 26.75 28.62 26.9 28.52 27.04C28.42 27.17 28.29 27.29 28.15 27.37C28 27.46 27.84 27.51 27.67 27.53C27.51 27.55 27.34 27.54 27.17 27.49C27.01 27.44 26.86 27.36 26.73 27.26C26.6 27.15 26.49 27.02 26.41 26.87C25.63 25.54 24.51 24.43 23.16 23.66C21.82 22.9 20.29 22.49 18.75 22.49C17.2 22.49 15.68 22.9 14.33 23.66C12.99 24.43 11.86 25.54 11.08 26.87C11 27.02 10.89 27.15 10.76 27.26C10.63 27.36 10.48 27.44 10.32 27.49C10.16 27.54 9.99 27.55 9.82 27.53C9.65 27.51 9.49 27.46 9.34 27.37C9.2 27.29 9.07 27.17 8.97 27.04C8.87 26.9 8.8 26.75 8.76 26.59C8.71 26.42 8.71 26.25 8.74 26.09C8.76 25.92 8.82 25.76 8.91 25.62C10.13 23.54 11.97 21.9 14.19 20.94C12.94 19.99 12.03 18.67 11.57 17.17C11.11 15.67 11.14 14.07 11.64 12.58C12.15 11.1 13.1 9.81 14.38 8.89C15.65 7.98 17.18 7.49 18.75 7.49C20.31 7.49 21.84 7.98 23.12 8.89C24.39 9.81 25.35 11.1 25.85 12.58C26.35 14.07 26.38 15.67 25.92 17.17C25.46 18.67 24.55 19.99 23.3 20.94C25.52 21.9 27.36 23.54 28.58 25.62ZM18.75 19.99C19.73 19.99 20.7 19.7 21.52 19.15C22.35 18.6 22.99 17.82 23.36 16.91C23.74 15.99 23.84 14.99 23.65 14.02C23.46 13.05 22.98 12.16 22.28 11.46C21.58 10.76 20.69 10.28 19.72 10.09C18.75 9.9 17.75 10 16.83 10.37C15.92 10.75 15.14 11.39 14.59 12.22C14.04 13.04 13.75 14 13.75 14.99C13.75 16.32 14.27 17.59 15.21 18.53C16.15 19.47 17.42 19.99 18.75 19.99ZM10 11.24C10 10.91 9.86 10.59 9.63 10.36C9.39 10.13 9.08 9.99 8.75 9.99C8.04 9.99 7.36 9.8 6.76 9.43C6.17 9.05 5.69 8.52 5.38 7.89C5.07 7.26 4.94 6.56 5.02 5.86C5.09 5.17 5.35 4.5 5.78 3.95C6.21 3.39 6.79 2.97 7.45 2.73C8.1 2.48 8.82 2.43 9.5 2.57C10.19 2.71 10.82 3.04 11.33 3.53C11.84 4.01 12.2 4.63 12.38 5.31C12.46 5.63 12.67 5.9 12.95 6.07C13.24 6.24 13.58 6.29 13.9 6.2C14.22 6.12 14.5 5.91 14.66 5.63C14.83 5.34 14.88 5 14.8 4.68C14.56 3.74 14.1 2.87 13.46 2.13C12.82 1.4 12.01 0.83 11.11 0.46C10.21 0.09 9.24 -0.06 8.27 0.01C7.3 0.09 6.36 0.39 5.53 0.89C4.69 1.39 3.99 2.08 3.47 2.9C2.95 3.72 2.63 4.65 2.53 5.62C2.43 6.59 2.56 7.57 2.91 8.47C3.26 9.38 3.81 10.2 4.53 10.85C2.83 11.59 1.35 12.76 0.25 14.24C0.05 14.51 -0.04 14.84 0.01 15.17C0.05 15.5 0.23 15.79 0.49 15.99C0.76 16.19 1.09 16.28 1.42 16.23C1.75 16.18 2.05 16.01 2.25 15.74C3 14.73 3.98 13.91 5.11 13.34C6.24 12.78 7.48 12.49 8.75 12.49C9.08 12.49 9.39 12.36 9.63 12.13C9.86 11.89 10 11.58 10 11.24Z"
            fill-opacity="1.000000" fill-rule="nonzero" />
    </symbol>
</svg>